<mxfile host="Electron" modified="2023-09-14T18:34:42.882Z" agent="Mozilla/5.0 (Windows NT 10.0; Win64; x64) AppleWebKit/537.36 (KHTML, like Gecko) draw.io/21.6.5 Chrome/114.0.5735.243 Electron/25.3.1 Safari/537.36" etag="-mSrQ2dnQN4KOVF7mfvG" version="21.6.5" type="device">
  <diagram name="Page-1" id="uPJT3uV9zS0HgmdtArEE">
    <mxGraphModel dx="8770" dy="4180" grid="1" gridSize="10" guides="1" tooltips="1" connect="1" arrows="1" fold="1" page="0" pageScale="1" pageWidth="827" pageHeight="1169" math="0" shadow="0">
      <root>
        <mxCell id="0" />
        <mxCell id="1" parent="0" />
        <mxCell id="7A5BujyxhH79Ag0sNUKM-4" value="" style="rounded=0;whiteSpace=wrap;html=1;rotation=90;strokeWidth=2;" vertex="1" parent="1">
          <mxGeometry x="-490" y="60" width="760" height="650" as="geometry" />
        </mxCell>
        <mxCell id="7A5BujyxhH79Ag0sNUKM-6" value="" style="endArrow=none;html=1;rounded=0;strokeColor=#000000;strokeWidth=4;entryX=0.205;entryY=0.001;entryDx=0;entryDy=0;entryPerimeter=0;exitX=0.203;exitY=0.999;exitDx=0;exitDy=0;exitPerimeter=0;" edge="1" parent="1" source="7A5BujyxhH79Ag0sNUKM-4" target="7A5BujyxhH79Ag0sNUKM-4">
          <mxGeometry width="50" height="50" relative="1" as="geometry">
            <mxPoint x="-430" y="160" as="sourcePoint" />
            <mxPoint x="220" y="163" as="targetPoint" />
          </mxGeometry>
        </mxCell>
        <mxCell id="7A5BujyxhH79Ag0sNUKM-11" value="" style="rounded=0;whiteSpace=wrap;html=1;rotation=90;strokeWidth=2;" vertex="1" parent="1">
          <mxGeometry x="850" y="60" width="760" height="650" as="geometry" />
        </mxCell>
        <mxCell id="7A5BujyxhH79Ag0sNUKM-12" value="" style="endArrow=none;html=1;rounded=0;strokeColor=#000000;strokeWidth=4;entryX=0.206;entryY=0;entryDx=0;entryDy=0;entryPerimeter=0;exitX=0.204;exitY=0.999;exitDx=0;exitDy=0;exitPerimeter=0;" edge="1" parent="1" target="7A5BujyxhH79Ag0sNUKM-11" source="7A5BujyxhH79Ag0sNUKM-11">
          <mxGeometry width="50" height="50" relative="1" as="geometry">
            <mxPoint x="910" y="160" as="sourcePoint" />
            <mxPoint x="1560" y="163" as="targetPoint" />
          </mxGeometry>
        </mxCell>
        <mxCell id="7A5BujyxhH79Ag0sNUKM-15" value="Quiz App" style="text;html=1;strokeColor=none;fillColor=none;align=center;verticalAlign=middle;whiteSpace=wrap;rounded=0;fontSize=34;fontStyle=1" vertex="1" parent="1">
          <mxGeometry x="-195" y="50" width="170" height="70" as="geometry" />
        </mxCell>
        <mxCell id="7A5BujyxhH79Ag0sNUKM-17" value="Result" style="text;html=1;strokeColor=none;fillColor=none;align=center;verticalAlign=middle;whiteSpace=wrap;rounded=0;fontSize=34;fontStyle=1" vertex="1" parent="1">
          <mxGeometry x="1145" y="50" width="170" height="70" as="geometry" />
        </mxCell>
        <mxCell id="7A5BujyxhH79Ag0sNUKM-21" value="Sport" style="rounded=0;whiteSpace=wrap;html=1;fontSize=16;" vertex="1" parent="1">
          <mxGeometry x="-400" y="200" width="280" height="140" as="geometry" />
        </mxCell>
        <mxCell id="7A5BujyxhH79Ag0sNUKM-114" value="" style="group" vertex="1" connectable="0" parent="1">
          <mxGeometry x="234.99999999999994" y="4" width="650" height="1263.12" as="geometry" />
        </mxCell>
        <mxCell id="7A5BujyxhH79Ag0sNUKM-9" value="" style="rounded=0;whiteSpace=wrap;html=1;rotation=90;strokeWidth=2;" vertex="1" parent="7A5BujyxhH79Ag0sNUKM-114">
          <mxGeometry x="-306.55999999999995" y="306.56" width="1263.12" height="650" as="geometry" />
        </mxCell>
        <mxCell id="7A5BujyxhH79Ag0sNUKM-10" value="" style="endArrow=none;html=1;rounded=0;strokeColor=#000000;strokeWidth=4;entryX=0.206;entryY=0;entryDx=0;entryDy=0;entryPerimeter=0;exitX=0.204;exitY=1;exitDx=0;exitDy=0;exitPerimeter=0;" edge="1" parent="7A5BujyxhH79Ag0sNUKM-114">
          <mxGeometry width="50" height="50" relative="1" as="geometry">
            <mxPoint x="1.1368683772161603e-13" y="156.36000000000035" as="sourcePoint" />
            <mxPoint x="650" y="158.5400000000002" as="targetPoint" />
          </mxGeometry>
        </mxCell>
        <mxCell id="7A5BujyxhH79Ag0sNUKM-16" value="&amp;lt;Category&amp;gt; Questions" style="text;html=1;strokeColor=none;fillColor=none;align=center;verticalAlign=middle;whiteSpace=wrap;rounded=0;fontSize=34;fontStyle=1" vertex="1" parent="7A5BujyxhH79Ag0sNUKM-114">
          <mxGeometry x="142.5000000000001" y="45" width="365" height="70" as="geometry" />
        </mxCell>
        <mxCell id="7A5BujyxhH79Ag0sNUKM-72" value="" style="group" vertex="1" connectable="0" parent="7A5BujyxhH79Ag0sNUKM-114">
          <mxGeometry x="35.00000000000006" y="196" width="560" height="80" as="geometry" />
        </mxCell>
        <mxCell id="7A5BujyxhH79Ag0sNUKM-73" value="" style="group" vertex="1" connectable="0" parent="7A5BujyxhH79Ag0sNUKM-72">
          <mxGeometry width="560" height="80" as="geometry" />
        </mxCell>
        <mxCell id="7A5BujyxhH79Ag0sNUKM-74" value="Option 1" style="rounded=0;whiteSpace=wrap;html=1;" vertex="1" parent="7A5BujyxhH79Ag0sNUKM-73">
          <mxGeometry y="30" width="180" height="50" as="geometry" />
        </mxCell>
        <mxCell id="7A5BujyxhH79Ag0sNUKM-75" value="Option 2" style="rounded=0;whiteSpace=wrap;html=1;fillColor=#f5f5f5;fontColor=#333333;strokeColor=#666666;" vertex="1" parent="7A5BujyxhH79Ag0sNUKM-73">
          <mxGeometry x="190" y="30" width="180" height="50" as="geometry" />
        </mxCell>
        <mxCell id="7A5BujyxhH79Ag0sNUKM-76" value="Option 3" style="rounded=0;whiteSpace=wrap;html=1;" vertex="1" parent="7A5BujyxhH79Ag0sNUKM-73">
          <mxGeometry x="380" y="30" width="180" height="50" as="geometry" />
        </mxCell>
        <mxCell id="7A5BujyxhH79Ag0sNUKM-77" value="&lt;font style=&quot;font-size: 16px;&quot;&gt;&lt;span style=&quot;margin: 0px; padding: 0px; font-family: &amp;quot;Open Sans&amp;quot;, Arial, sans-serif;&quot;&gt;Lorem Ipsum&lt;/span&gt;&amp;nbsp;is simply dummy text of the printing and typesetting industry.&lt;/font&gt;" style="text;html=1;strokeColor=none;fillColor=none;align=left;verticalAlign=middle;whiteSpace=wrap;rounded=0;" vertex="1" parent="7A5BujyxhH79Ag0sNUKM-73">
          <mxGeometry width="540" height="30" as="geometry" />
        </mxCell>
        <mxCell id="7A5BujyxhH79Ag0sNUKM-78" value="" style="group" vertex="1" connectable="0" parent="7A5BujyxhH79Ag0sNUKM-114">
          <mxGeometry x="35.00000000000006" y="286" width="560" height="80" as="geometry" />
        </mxCell>
        <mxCell id="7A5BujyxhH79Ag0sNUKM-79" value="" style="group" vertex="1" connectable="0" parent="7A5BujyxhH79Ag0sNUKM-78">
          <mxGeometry width="560" height="80" as="geometry" />
        </mxCell>
        <mxCell id="7A5BujyxhH79Ag0sNUKM-80" value="Option 1" style="rounded=0;whiteSpace=wrap;html=1;fillColor=#f5f5f5;fontColor=#333333;strokeColor=#666666;" vertex="1" parent="7A5BujyxhH79Ag0sNUKM-79">
          <mxGeometry y="30" width="180" height="50" as="geometry" />
        </mxCell>
        <mxCell id="7A5BujyxhH79Ag0sNUKM-81" value="Option 2" style="rounded=0;whiteSpace=wrap;html=1;" vertex="1" parent="7A5BujyxhH79Ag0sNUKM-79">
          <mxGeometry x="190" y="30" width="180" height="50" as="geometry" />
        </mxCell>
        <mxCell id="7A5BujyxhH79Ag0sNUKM-82" value="Option 3" style="rounded=0;whiteSpace=wrap;html=1;" vertex="1" parent="7A5BujyxhH79Ag0sNUKM-79">
          <mxGeometry x="380" y="30" width="180" height="50" as="geometry" />
        </mxCell>
        <mxCell id="7A5BujyxhH79Ag0sNUKM-83" value="&lt;font style=&quot;font-size: 16px;&quot;&gt;&lt;span style=&quot;margin: 0px; padding: 0px; font-family: &amp;quot;Open Sans&amp;quot;, Arial, sans-serif;&quot;&gt;Lorem Ipsum&lt;/span&gt;&amp;nbsp;is simply dummy text of the printing and typesetting industry.&lt;/font&gt;" style="text;html=1;strokeColor=none;fillColor=none;align=left;verticalAlign=middle;whiteSpace=wrap;rounded=0;" vertex="1" parent="7A5BujyxhH79Ag0sNUKM-79">
          <mxGeometry width="540" height="30" as="geometry" />
        </mxCell>
        <mxCell id="7A5BujyxhH79Ag0sNUKM-84" value="" style="group" vertex="1" connectable="0" parent="7A5BujyxhH79Ag0sNUKM-114">
          <mxGeometry x="35.00000000000006" y="386" width="560" height="80" as="geometry" />
        </mxCell>
        <mxCell id="7A5BujyxhH79Ag0sNUKM-85" value="" style="group" vertex="1" connectable="0" parent="7A5BujyxhH79Ag0sNUKM-84">
          <mxGeometry width="560" height="80" as="geometry" />
        </mxCell>
        <mxCell id="7A5BujyxhH79Ag0sNUKM-86" value="Option 1" style="rounded=0;whiteSpace=wrap;html=1;" vertex="1" parent="7A5BujyxhH79Ag0sNUKM-85">
          <mxGeometry y="30" width="180" height="50" as="geometry" />
        </mxCell>
        <mxCell id="7A5BujyxhH79Ag0sNUKM-87" value="Option 2" style="rounded=0;whiteSpace=wrap;html=1;fillColor=#f5f5f5;fontColor=#333333;strokeColor=#666666;" vertex="1" parent="7A5BujyxhH79Ag0sNUKM-85">
          <mxGeometry x="190" y="30" width="180" height="50" as="geometry" />
        </mxCell>
        <mxCell id="7A5BujyxhH79Ag0sNUKM-88" value="Option 3" style="rounded=0;whiteSpace=wrap;html=1;" vertex="1" parent="7A5BujyxhH79Ag0sNUKM-85">
          <mxGeometry x="380" y="30" width="180" height="50" as="geometry" />
        </mxCell>
        <mxCell id="7A5BujyxhH79Ag0sNUKM-89" value="&lt;font style=&quot;font-size: 16px;&quot;&gt;&lt;span style=&quot;margin: 0px; padding: 0px; font-family: &amp;quot;Open Sans&amp;quot;, Arial, sans-serif;&quot;&gt;Lorem Ipsum&lt;/span&gt;&amp;nbsp;is simply dummy text of the printing and typesetting industry.&lt;/font&gt;" style="text;html=1;strokeColor=none;fillColor=none;align=left;verticalAlign=middle;whiteSpace=wrap;rounded=0;" vertex="1" parent="7A5BujyxhH79Ag0sNUKM-85">
          <mxGeometry width="540" height="30" as="geometry" />
        </mxCell>
        <mxCell id="7A5BujyxhH79Ag0sNUKM-90" value="" style="group" vertex="1" connectable="0" parent="7A5BujyxhH79Ag0sNUKM-114">
          <mxGeometry x="35.00000000000006" y="486" width="560" height="80" as="geometry" />
        </mxCell>
        <mxCell id="7A5BujyxhH79Ag0sNUKM-91" value="" style="group" vertex="1" connectable="0" parent="7A5BujyxhH79Ag0sNUKM-90">
          <mxGeometry width="560" height="80" as="geometry" />
        </mxCell>
        <mxCell id="7A5BujyxhH79Ag0sNUKM-92" value="Option 1" style="rounded=0;whiteSpace=wrap;html=1;" vertex="1" parent="7A5BujyxhH79Ag0sNUKM-91">
          <mxGeometry y="30" width="180" height="50" as="geometry" />
        </mxCell>
        <mxCell id="7A5BujyxhH79Ag0sNUKM-93" value="Option 2" style="rounded=0;whiteSpace=wrap;html=1;" vertex="1" parent="7A5BujyxhH79Ag0sNUKM-91">
          <mxGeometry x="190" y="30" width="180" height="50" as="geometry" />
        </mxCell>
        <mxCell id="7A5BujyxhH79Ag0sNUKM-94" value="Option 3" style="rounded=0;whiteSpace=wrap;html=1;fillColor=#f5f5f5;fontColor=#333333;strokeColor=#666666;" vertex="1" parent="7A5BujyxhH79Ag0sNUKM-91">
          <mxGeometry x="380" y="30" width="180" height="50" as="geometry" />
        </mxCell>
        <mxCell id="7A5BujyxhH79Ag0sNUKM-95" value="&lt;font style=&quot;font-size: 16px;&quot;&gt;&lt;span style=&quot;margin: 0px; padding: 0px; font-family: &amp;quot;Open Sans&amp;quot;, Arial, sans-serif;&quot;&gt;Lorem Ipsum&lt;/span&gt;&amp;nbsp;is simply dummy text of the printing and typesetting industry.&lt;/font&gt;" style="text;html=1;strokeColor=none;fillColor=none;align=left;verticalAlign=middle;whiteSpace=wrap;rounded=0;" vertex="1" parent="7A5BujyxhH79Ag0sNUKM-91">
          <mxGeometry width="540" height="30" as="geometry" />
        </mxCell>
        <mxCell id="7A5BujyxhH79Ag0sNUKM-66" value="" style="group" vertex="1" connectable="0" parent="7A5BujyxhH79Ag0sNUKM-114">
          <mxGeometry x="35.00000000000006" y="586" width="560" height="80" as="geometry" />
        </mxCell>
        <mxCell id="7A5BujyxhH79Ag0sNUKM-67" value="" style="group" vertex="1" connectable="0" parent="7A5BujyxhH79Ag0sNUKM-66">
          <mxGeometry width="560" height="80" as="geometry" />
        </mxCell>
        <mxCell id="7A5BujyxhH79Ag0sNUKM-68" value="Option 1" style="rounded=0;whiteSpace=wrap;html=1;" vertex="1" parent="7A5BujyxhH79Ag0sNUKM-67">
          <mxGeometry y="30" width="180" height="50" as="geometry" />
        </mxCell>
        <mxCell id="7A5BujyxhH79Ag0sNUKM-69" value="Option 2" style="rounded=0;whiteSpace=wrap;html=1;" vertex="1" parent="7A5BujyxhH79Ag0sNUKM-67">
          <mxGeometry x="190" y="30" width="180" height="50" as="geometry" />
        </mxCell>
        <mxCell id="7A5BujyxhH79Ag0sNUKM-70" value="Option 3" style="rounded=0;whiteSpace=wrap;html=1;fillColor=#f5f5f5;fontColor=#333333;strokeColor=#666666;" vertex="1" parent="7A5BujyxhH79Ag0sNUKM-67">
          <mxGeometry x="380" y="30" width="180" height="50" as="geometry" />
        </mxCell>
        <mxCell id="7A5BujyxhH79Ag0sNUKM-71" value="&lt;font style=&quot;font-size: 16px;&quot;&gt;&lt;span style=&quot;margin: 0px; padding: 0px; font-family: &amp;quot;Open Sans&amp;quot;, Arial, sans-serif;&quot;&gt;Lorem Ipsum&lt;/span&gt;&amp;nbsp;is simply dummy text of the printing and typesetting industry.&lt;/font&gt;" style="text;html=1;strokeColor=none;fillColor=none;align=left;verticalAlign=middle;whiteSpace=wrap;rounded=0;" vertex="1" parent="7A5BujyxhH79Ag0sNUKM-67">
          <mxGeometry width="540" height="30" as="geometry" />
        </mxCell>
        <mxCell id="7A5BujyxhH79Ag0sNUKM-58" value="" style="group" vertex="1" connectable="0" parent="7A5BujyxhH79Ag0sNUKM-114">
          <mxGeometry x="35.00000000000006" y="686" width="560" height="80" as="geometry" />
        </mxCell>
        <mxCell id="7A5BujyxhH79Ag0sNUKM-59" value="" style="group" vertex="1" connectable="0" parent="7A5BujyxhH79Ag0sNUKM-58">
          <mxGeometry width="560" height="80" as="geometry" />
        </mxCell>
        <mxCell id="7A5BujyxhH79Ag0sNUKM-50" value="Option 1" style="rounded=0;whiteSpace=wrap;html=1;" vertex="1" parent="7A5BujyxhH79Ag0sNUKM-59">
          <mxGeometry y="30" width="180" height="50" as="geometry" />
        </mxCell>
        <mxCell id="7A5BujyxhH79Ag0sNUKM-51" value="Option 2" style="rounded=0;whiteSpace=wrap;html=1;fillColor=#f5f5f5;fontColor=#333333;strokeColor=#666666;" vertex="1" parent="7A5BujyxhH79Ag0sNUKM-59">
          <mxGeometry x="190" y="30" width="180" height="50" as="geometry" />
        </mxCell>
        <mxCell id="7A5BujyxhH79Ag0sNUKM-52" value="Option 3" style="rounded=0;whiteSpace=wrap;html=1;" vertex="1" parent="7A5BujyxhH79Ag0sNUKM-59">
          <mxGeometry x="380" y="30" width="180" height="50" as="geometry" />
        </mxCell>
        <mxCell id="7A5BujyxhH79Ag0sNUKM-53" value="&lt;font style=&quot;font-size: 16px;&quot;&gt;&lt;span style=&quot;margin: 0px; padding: 0px; font-family: &amp;quot;Open Sans&amp;quot;, Arial, sans-serif;&quot;&gt;Lorem Ipsum&lt;/span&gt;&amp;nbsp;is simply dummy text of the printing and typesetting industry.&lt;/font&gt;" style="text;html=1;strokeColor=none;fillColor=none;align=left;verticalAlign=middle;whiteSpace=wrap;rounded=0;" vertex="1" parent="7A5BujyxhH79Ag0sNUKM-59">
          <mxGeometry width="540" height="30" as="geometry" />
        </mxCell>
        <mxCell id="7A5BujyxhH79Ag0sNUKM-60" value="" style="group" vertex="1" connectable="0" parent="7A5BujyxhH79Ag0sNUKM-114">
          <mxGeometry x="35.00000000000006" y="786" width="560" height="80" as="geometry" />
        </mxCell>
        <mxCell id="7A5BujyxhH79Ag0sNUKM-61" value="" style="group" vertex="1" connectable="0" parent="7A5BujyxhH79Ag0sNUKM-60">
          <mxGeometry width="560" height="80" as="geometry" />
        </mxCell>
        <mxCell id="7A5BujyxhH79Ag0sNUKM-62" value="Option 1" style="rounded=0;whiteSpace=wrap;html=1;" vertex="1" parent="7A5BujyxhH79Ag0sNUKM-61">
          <mxGeometry y="30" width="180" height="50" as="geometry" />
        </mxCell>
        <mxCell id="7A5BujyxhH79Ag0sNUKM-63" value="Option 2" style="rounded=0;whiteSpace=wrap;html=1;fillColor=#f5f5f5;fontColor=#333333;strokeColor=#666666;" vertex="1" parent="7A5BujyxhH79Ag0sNUKM-61">
          <mxGeometry x="190" y="30" width="180" height="50" as="geometry" />
        </mxCell>
        <mxCell id="7A5BujyxhH79Ag0sNUKM-64" value="Option 3" style="rounded=0;whiteSpace=wrap;html=1;" vertex="1" parent="7A5BujyxhH79Ag0sNUKM-61">
          <mxGeometry x="380" y="30" width="180" height="50" as="geometry" />
        </mxCell>
        <mxCell id="7A5BujyxhH79Ag0sNUKM-65" value="&lt;font style=&quot;font-size: 16px;&quot;&gt;&lt;span style=&quot;margin: 0px; padding: 0px; font-family: &amp;quot;Open Sans&amp;quot;, Arial, sans-serif;&quot;&gt;Lorem Ipsum&lt;/span&gt;&amp;nbsp;is simply dummy text of the printing and typesetting industry.&lt;/font&gt;" style="text;html=1;strokeColor=none;fillColor=none;align=left;verticalAlign=middle;whiteSpace=wrap;rounded=0;" vertex="1" parent="7A5BujyxhH79Ag0sNUKM-61">
          <mxGeometry width="540" height="30" as="geometry" />
        </mxCell>
        <mxCell id="7A5BujyxhH79Ag0sNUKM-96" value="" style="group" vertex="1" connectable="0" parent="7A5BujyxhH79Ag0sNUKM-114">
          <mxGeometry x="35.00000000000006" y="876" width="560" height="80" as="geometry" />
        </mxCell>
        <mxCell id="7A5BujyxhH79Ag0sNUKM-97" value="" style="group" vertex="1" connectable="0" parent="7A5BujyxhH79Ag0sNUKM-96">
          <mxGeometry width="560" height="80" as="geometry" />
        </mxCell>
        <mxCell id="7A5BujyxhH79Ag0sNUKM-98" value="Option 1" style="rounded=0;whiteSpace=wrap;html=1;fillColor=#f5f5f5;fontColor=#333333;strokeColor=#666666;" vertex="1" parent="7A5BujyxhH79Ag0sNUKM-97">
          <mxGeometry y="30" width="180" height="50" as="geometry" />
        </mxCell>
        <mxCell id="7A5BujyxhH79Ag0sNUKM-99" value="Option 2" style="rounded=0;whiteSpace=wrap;html=1;" vertex="1" parent="7A5BujyxhH79Ag0sNUKM-97">
          <mxGeometry x="190" y="30" width="180" height="50" as="geometry" />
        </mxCell>
        <mxCell id="7A5BujyxhH79Ag0sNUKM-100" value="Option 3" style="rounded=0;whiteSpace=wrap;html=1;" vertex="1" parent="7A5BujyxhH79Ag0sNUKM-97">
          <mxGeometry x="380" y="30" width="180" height="50" as="geometry" />
        </mxCell>
        <mxCell id="7A5BujyxhH79Ag0sNUKM-101" value="&lt;font style=&quot;font-size: 16px;&quot;&gt;&lt;span style=&quot;margin: 0px; padding: 0px; font-family: &amp;quot;Open Sans&amp;quot;, Arial, sans-serif;&quot;&gt;Lorem Ipsum&lt;/span&gt;&amp;nbsp;is simply dummy text of the printing and typesetting industry.&lt;/font&gt;" style="text;html=1;strokeColor=none;fillColor=none;align=left;verticalAlign=middle;whiteSpace=wrap;rounded=0;" vertex="1" parent="7A5BujyxhH79Ag0sNUKM-97">
          <mxGeometry width="540" height="30" as="geometry" />
        </mxCell>
        <mxCell id="7A5BujyxhH79Ag0sNUKM-102" value="" style="group" vertex="1" connectable="0" parent="7A5BujyxhH79Ag0sNUKM-114">
          <mxGeometry x="35.00000000000006" y="966" width="560" height="80" as="geometry" />
        </mxCell>
        <mxCell id="7A5BujyxhH79Ag0sNUKM-103" value="" style="group" vertex="1" connectable="0" parent="7A5BujyxhH79Ag0sNUKM-102">
          <mxGeometry width="560" height="80" as="geometry" />
        </mxCell>
        <mxCell id="7A5BujyxhH79Ag0sNUKM-104" value="Option 1" style="rounded=0;whiteSpace=wrap;html=1;fillColor=#f5f5f5;fontColor=#333333;strokeColor=#666666;" vertex="1" parent="7A5BujyxhH79Ag0sNUKM-103">
          <mxGeometry y="30" width="180" height="50" as="geometry" />
        </mxCell>
        <mxCell id="7A5BujyxhH79Ag0sNUKM-105" value="Option 2" style="rounded=0;whiteSpace=wrap;html=1;" vertex="1" parent="7A5BujyxhH79Ag0sNUKM-103">
          <mxGeometry x="190" y="30" width="180" height="50" as="geometry" />
        </mxCell>
        <mxCell id="7A5BujyxhH79Ag0sNUKM-106" value="Option 3" style="rounded=0;whiteSpace=wrap;html=1;" vertex="1" parent="7A5BujyxhH79Ag0sNUKM-103">
          <mxGeometry x="380" y="30" width="180" height="50" as="geometry" />
        </mxCell>
        <mxCell id="7A5BujyxhH79Ag0sNUKM-107" value="&lt;font style=&quot;font-size: 16px;&quot;&gt;&lt;span style=&quot;margin: 0px; padding: 0px; font-family: &amp;quot;Open Sans&amp;quot;, Arial, sans-serif;&quot;&gt;Lorem Ipsum&lt;/span&gt;&amp;nbsp;is simply dummy text of the printing and typesetting industry.&lt;/font&gt;" style="text;html=1;strokeColor=none;fillColor=none;align=left;verticalAlign=middle;whiteSpace=wrap;rounded=0;" vertex="1" parent="7A5BujyxhH79Ag0sNUKM-103">
          <mxGeometry width="540" height="30" as="geometry" />
        </mxCell>
        <mxCell id="7A5BujyxhH79Ag0sNUKM-108" value="" style="group" vertex="1" connectable="0" parent="7A5BujyxhH79Ag0sNUKM-114">
          <mxGeometry x="35.00000000000006" y="1056" width="560" height="80" as="geometry" />
        </mxCell>
        <mxCell id="7A5BujyxhH79Ag0sNUKM-109" value="Option 1" style="rounded=0;whiteSpace=wrap;html=1;" vertex="1" parent="7A5BujyxhH79Ag0sNUKM-108">
          <mxGeometry y="30" width="180" height="50" as="geometry" />
        </mxCell>
        <mxCell id="7A5BujyxhH79Ag0sNUKM-110" value="Option 2" style="rounded=0;whiteSpace=wrap;html=1;" vertex="1" parent="7A5BujyxhH79Ag0sNUKM-108">
          <mxGeometry x="190" y="30" width="180" height="50" as="geometry" />
        </mxCell>
        <mxCell id="7A5BujyxhH79Ag0sNUKM-111" value="Option 3" style="rounded=0;whiteSpace=wrap;html=1;fillColor=#f5f5f5;fontColor=#333333;strokeColor=#666666;" vertex="1" parent="7A5BujyxhH79Ag0sNUKM-108">
          <mxGeometry x="380" y="30" width="180" height="50" as="geometry" />
        </mxCell>
        <mxCell id="7A5BujyxhH79Ag0sNUKM-112" value="&lt;font style=&quot;font-size: 16px;&quot;&gt;&lt;span style=&quot;margin: 0px; padding: 0px; font-family: &amp;quot;Open Sans&amp;quot;, Arial, sans-serif;&quot;&gt;Lorem Ipsum&lt;/span&gt;&amp;nbsp;is simply dummy text of the printing and typesetting industry.&lt;/font&gt;" style="text;html=1;strokeColor=none;fillColor=none;align=left;verticalAlign=middle;whiteSpace=wrap;rounded=0;" vertex="1" parent="7A5BujyxhH79Ag0sNUKM-108">
          <mxGeometry width="540" height="30" as="geometry" />
        </mxCell>
        <mxCell id="7A5BujyxhH79Ag0sNUKM-113" value="Submit" style="rounded=0;whiteSpace=wrap;html=1;fillColor=#000000;fontColor=#FFFFFF;fontSize=16;" vertex="1" parent="7A5BujyxhH79Ag0sNUKM-114">
          <mxGeometry x="225.00000000000006" y="1166" width="180" height="50" as="geometry" />
        </mxCell>
        <mxCell id="7A5BujyxhH79Ag0sNUKM-116" value="" style="group" vertex="1" connectable="0" parent="1">
          <mxGeometry x="234.99999999999994" y="1290" width="650" height="1263.12" as="geometry" />
        </mxCell>
        <mxCell id="7A5BujyxhH79Ag0sNUKM-117" value="" style="rounded=0;whiteSpace=wrap;html=1;rotation=90;strokeWidth=2;" vertex="1" parent="7A5BujyxhH79Ag0sNUKM-116">
          <mxGeometry x="-306.55999999999995" y="306.56" width="1263.12" height="650" as="geometry" />
        </mxCell>
        <mxCell id="7A5BujyxhH79Ag0sNUKM-118" value="" style="endArrow=none;html=1;rounded=0;strokeColor=#000000;strokeWidth=4;entryX=0.206;entryY=0;entryDx=0;entryDy=0;entryPerimeter=0;exitX=0.204;exitY=1;exitDx=0;exitDy=0;exitPerimeter=0;" edge="1" parent="7A5BujyxhH79Ag0sNUKM-116">
          <mxGeometry width="50" height="50" relative="1" as="geometry">
            <mxPoint x="1.1368683772161603e-13" y="156.36000000000035" as="sourcePoint" />
            <mxPoint x="650" y="158.5400000000002" as="targetPoint" />
          </mxGeometry>
        </mxCell>
        <mxCell id="7A5BujyxhH79Ag0sNUKM-119" value="&amp;lt;Category&amp;gt; Questions" style="text;html=1;strokeColor=none;fillColor=none;align=center;verticalAlign=middle;whiteSpace=wrap;rounded=0;fontSize=34;fontStyle=1" vertex="1" parent="7A5BujyxhH79Ag0sNUKM-116">
          <mxGeometry x="142.5000000000001" y="45" width="365" height="70" as="geometry" />
        </mxCell>
        <mxCell id="7A5BujyxhH79Ag0sNUKM-120" value="" style="group" vertex="1" connectable="0" parent="7A5BujyxhH79Ag0sNUKM-116">
          <mxGeometry x="35.00000000000006" y="196" width="560" height="80" as="geometry" />
        </mxCell>
        <mxCell id="7A5BujyxhH79Ag0sNUKM-121" value="" style="group" vertex="1" connectable="0" parent="7A5BujyxhH79Ag0sNUKM-120">
          <mxGeometry width="560" height="80" as="geometry" />
        </mxCell>
        <mxCell id="7A5BujyxhH79Ag0sNUKM-122" value="Option 1" style="rounded=0;whiteSpace=wrap;html=1;" vertex="1" parent="7A5BujyxhH79Ag0sNUKM-121">
          <mxGeometry y="30" width="180" height="50" as="geometry" />
        </mxCell>
        <mxCell id="7A5BujyxhH79Ag0sNUKM-123" value="Option 2" style="rounded=0;whiteSpace=wrap;html=1;fillColor=#d5e8d4;strokeColor=#82b366;" vertex="1" parent="7A5BujyxhH79Ag0sNUKM-121">
          <mxGeometry x="190" y="30" width="180" height="50" as="geometry" />
        </mxCell>
        <mxCell id="7A5BujyxhH79Ag0sNUKM-124" value="Option 3" style="rounded=0;whiteSpace=wrap;html=1;" vertex="1" parent="7A5BujyxhH79Ag0sNUKM-121">
          <mxGeometry x="380" y="30" width="180" height="50" as="geometry" />
        </mxCell>
        <mxCell id="7A5BujyxhH79Ag0sNUKM-125" value="&lt;font style=&quot;font-size: 16px;&quot;&gt;&lt;span style=&quot;margin: 0px; padding: 0px; font-family: &amp;quot;Open Sans&amp;quot;, Arial, sans-serif;&quot;&gt;Lorem Ipsum&lt;/span&gt;&amp;nbsp;is simply dummy text of the printing and typesetting industry.&lt;/font&gt;" style="text;html=1;strokeColor=none;fillColor=none;align=left;verticalAlign=middle;whiteSpace=wrap;rounded=0;" vertex="1" parent="7A5BujyxhH79Ag0sNUKM-121">
          <mxGeometry width="540" height="30" as="geometry" />
        </mxCell>
        <mxCell id="7A5BujyxhH79Ag0sNUKM-126" value="" style="group" vertex="1" connectable="0" parent="7A5BujyxhH79Ag0sNUKM-116">
          <mxGeometry x="35.00000000000006" y="286" width="560" height="80" as="geometry" />
        </mxCell>
        <mxCell id="7A5BujyxhH79Ag0sNUKM-127" value="" style="group" vertex="1" connectable="0" parent="7A5BujyxhH79Ag0sNUKM-126">
          <mxGeometry width="560" height="80" as="geometry" />
        </mxCell>
        <mxCell id="7A5BujyxhH79Ag0sNUKM-128" value="Option 1" style="rounded=0;whiteSpace=wrap;html=1;fillColor=#d5e8d4;strokeColor=#82b366;" vertex="1" parent="7A5BujyxhH79Ag0sNUKM-127">
          <mxGeometry y="30" width="180" height="50" as="geometry" />
        </mxCell>
        <mxCell id="7A5BujyxhH79Ag0sNUKM-129" value="Option 2" style="rounded=0;whiteSpace=wrap;html=1;" vertex="1" parent="7A5BujyxhH79Ag0sNUKM-127">
          <mxGeometry x="190" y="30" width="180" height="50" as="geometry" />
        </mxCell>
        <mxCell id="7A5BujyxhH79Ag0sNUKM-130" value="Option 3" style="rounded=0;whiteSpace=wrap;html=1;" vertex="1" parent="7A5BujyxhH79Ag0sNUKM-127">
          <mxGeometry x="380" y="30" width="180" height="50" as="geometry" />
        </mxCell>
        <mxCell id="7A5BujyxhH79Ag0sNUKM-131" value="&lt;font style=&quot;font-size: 16px;&quot;&gt;&lt;span style=&quot;margin: 0px; padding: 0px; font-family: &amp;quot;Open Sans&amp;quot;, Arial, sans-serif;&quot;&gt;Lorem Ipsum&lt;/span&gt;&amp;nbsp;is simply dummy text of the printing and typesetting industry.&lt;/font&gt;" style="text;html=1;strokeColor=none;fillColor=none;align=left;verticalAlign=middle;whiteSpace=wrap;rounded=0;" vertex="1" parent="7A5BujyxhH79Ag0sNUKM-127">
          <mxGeometry width="540" height="30" as="geometry" />
        </mxCell>
        <mxCell id="7A5BujyxhH79Ag0sNUKM-132" value="" style="group" vertex="1" connectable="0" parent="7A5BujyxhH79Ag0sNUKM-116">
          <mxGeometry x="35.00000000000006" y="386" width="560" height="80" as="geometry" />
        </mxCell>
        <mxCell id="7A5BujyxhH79Ag0sNUKM-133" value="" style="group" vertex="1" connectable="0" parent="7A5BujyxhH79Ag0sNUKM-132">
          <mxGeometry width="560" height="80" as="geometry" />
        </mxCell>
        <mxCell id="7A5BujyxhH79Ag0sNUKM-134" value="Option 1" style="rounded=0;whiteSpace=wrap;html=1;" vertex="1" parent="7A5BujyxhH79Ag0sNUKM-133">
          <mxGeometry y="30" width="180" height="50" as="geometry" />
        </mxCell>
        <mxCell id="7A5BujyxhH79Ag0sNUKM-135" value="Option 2" style="rounded=0;whiteSpace=wrap;html=1;fillColor=#d5e8d4;strokeColor=#82b366;" vertex="1" parent="7A5BujyxhH79Ag0sNUKM-133">
          <mxGeometry x="190" y="30" width="180" height="50" as="geometry" />
        </mxCell>
        <mxCell id="7A5BujyxhH79Ag0sNUKM-136" value="Option 3" style="rounded=0;whiteSpace=wrap;html=1;" vertex="1" parent="7A5BujyxhH79Ag0sNUKM-133">
          <mxGeometry x="380" y="30" width="180" height="50" as="geometry" />
        </mxCell>
        <mxCell id="7A5BujyxhH79Ag0sNUKM-137" value="&lt;font style=&quot;font-size: 16px;&quot;&gt;&lt;span style=&quot;margin: 0px; padding: 0px; font-family: &amp;quot;Open Sans&amp;quot;, Arial, sans-serif;&quot;&gt;Lorem Ipsum&lt;/span&gt;&amp;nbsp;is simply dummy text of the printing and typesetting industry.&lt;/font&gt;" style="text;html=1;strokeColor=none;fillColor=none;align=left;verticalAlign=middle;whiteSpace=wrap;rounded=0;" vertex="1" parent="7A5BujyxhH79Ag0sNUKM-133">
          <mxGeometry width="540" height="30" as="geometry" />
        </mxCell>
        <mxCell id="7A5BujyxhH79Ag0sNUKM-138" value="" style="group" vertex="1" connectable="0" parent="7A5BujyxhH79Ag0sNUKM-116">
          <mxGeometry x="35.00000000000006" y="486" width="560" height="80" as="geometry" />
        </mxCell>
        <mxCell id="7A5BujyxhH79Ag0sNUKM-139" value="" style="group" vertex="1" connectable="0" parent="7A5BujyxhH79Ag0sNUKM-138">
          <mxGeometry width="560" height="80" as="geometry" />
        </mxCell>
        <mxCell id="7A5BujyxhH79Ag0sNUKM-140" value="Option 1" style="rounded=0;whiteSpace=wrap;html=1;" vertex="1" parent="7A5BujyxhH79Ag0sNUKM-139">
          <mxGeometry y="30" width="180" height="50" as="geometry" />
        </mxCell>
        <mxCell id="7A5BujyxhH79Ag0sNUKM-141" value="Option 2" style="rounded=0;whiteSpace=wrap;html=1;" vertex="1" parent="7A5BujyxhH79Ag0sNUKM-139">
          <mxGeometry x="190" y="30" width="180" height="50" as="geometry" />
        </mxCell>
        <mxCell id="7A5BujyxhH79Ag0sNUKM-142" value="Option 3" style="rounded=0;whiteSpace=wrap;html=1;fillColor=#f8cecc;strokeColor=#b85450;" vertex="1" parent="7A5BujyxhH79Ag0sNUKM-139">
          <mxGeometry x="380" y="30" width="180" height="50" as="geometry" />
        </mxCell>
        <mxCell id="7A5BujyxhH79Ag0sNUKM-143" value="&lt;font style=&quot;font-size: 16px;&quot;&gt;&lt;span style=&quot;margin: 0px; padding: 0px; font-family: &amp;quot;Open Sans&amp;quot;, Arial, sans-serif;&quot;&gt;Lorem Ipsum&lt;/span&gt;&amp;nbsp;is simply dummy text of the printing and typesetting industry.&lt;/font&gt;" style="text;html=1;strokeColor=none;fillColor=none;align=left;verticalAlign=middle;whiteSpace=wrap;rounded=0;" vertex="1" parent="7A5BujyxhH79Ag0sNUKM-139">
          <mxGeometry width="540" height="30" as="geometry" />
        </mxCell>
        <mxCell id="7A5BujyxhH79Ag0sNUKM-144" value="" style="group" vertex="1" connectable="0" parent="7A5BujyxhH79Ag0sNUKM-116">
          <mxGeometry x="35.00000000000006" y="586" width="560" height="80" as="geometry" />
        </mxCell>
        <mxCell id="7A5BujyxhH79Ag0sNUKM-145" value="" style="group" vertex="1" connectable="0" parent="7A5BujyxhH79Ag0sNUKM-144">
          <mxGeometry width="560" height="80" as="geometry" />
        </mxCell>
        <mxCell id="7A5BujyxhH79Ag0sNUKM-146" value="Option 1" style="rounded=0;whiteSpace=wrap;html=1;" vertex="1" parent="7A5BujyxhH79Ag0sNUKM-145">
          <mxGeometry y="30" width="180" height="50" as="geometry" />
        </mxCell>
        <mxCell id="7A5BujyxhH79Ag0sNUKM-147" value="Option 2" style="rounded=0;whiteSpace=wrap;html=1;" vertex="1" parent="7A5BujyxhH79Ag0sNUKM-145">
          <mxGeometry x="190" y="30" width="180" height="50" as="geometry" />
        </mxCell>
        <mxCell id="7A5BujyxhH79Ag0sNUKM-148" value="Option 3" style="rounded=0;whiteSpace=wrap;html=1;fillColor=#f8cecc;strokeColor=#b85450;" vertex="1" parent="7A5BujyxhH79Ag0sNUKM-145">
          <mxGeometry x="380" y="30" width="180" height="50" as="geometry" />
        </mxCell>
        <mxCell id="7A5BujyxhH79Ag0sNUKM-149" value="&lt;font style=&quot;font-size: 16px;&quot;&gt;&lt;span style=&quot;margin: 0px; padding: 0px; font-family: &amp;quot;Open Sans&amp;quot;, Arial, sans-serif;&quot;&gt;Lorem Ipsum&lt;/span&gt;&amp;nbsp;is simply dummy text of the printing and typesetting industry.&lt;/font&gt;" style="text;html=1;strokeColor=none;fillColor=none;align=left;verticalAlign=middle;whiteSpace=wrap;rounded=0;" vertex="1" parent="7A5BujyxhH79Ag0sNUKM-145">
          <mxGeometry width="540" height="30" as="geometry" />
        </mxCell>
        <mxCell id="7A5BujyxhH79Ag0sNUKM-150" value="" style="group" vertex="1" connectable="0" parent="7A5BujyxhH79Ag0sNUKM-116">
          <mxGeometry x="35.00000000000006" y="686" width="560" height="80" as="geometry" />
        </mxCell>
        <mxCell id="7A5BujyxhH79Ag0sNUKM-151" value="" style="group" vertex="1" connectable="0" parent="7A5BujyxhH79Ag0sNUKM-150">
          <mxGeometry width="560" height="80" as="geometry" />
        </mxCell>
        <mxCell id="7A5BujyxhH79Ag0sNUKM-152" value="Option 1" style="rounded=0;whiteSpace=wrap;html=1;" vertex="1" parent="7A5BujyxhH79Ag0sNUKM-151">
          <mxGeometry y="30" width="180" height="50" as="geometry" />
        </mxCell>
        <mxCell id="7A5BujyxhH79Ag0sNUKM-153" value="Option 2" style="rounded=0;whiteSpace=wrap;html=1;fillColor=#d5e8d4;strokeColor=#82b366;" vertex="1" parent="7A5BujyxhH79Ag0sNUKM-151">
          <mxGeometry x="190" y="30" width="180" height="50" as="geometry" />
        </mxCell>
        <mxCell id="7A5BujyxhH79Ag0sNUKM-154" value="Option 3" style="rounded=0;whiteSpace=wrap;html=1;" vertex="1" parent="7A5BujyxhH79Ag0sNUKM-151">
          <mxGeometry x="380" y="30" width="180" height="50" as="geometry" />
        </mxCell>
        <mxCell id="7A5BujyxhH79Ag0sNUKM-155" value="&lt;font style=&quot;font-size: 16px;&quot;&gt;&lt;span style=&quot;margin: 0px; padding: 0px; font-family: &amp;quot;Open Sans&amp;quot;, Arial, sans-serif;&quot;&gt;Lorem Ipsum&lt;/span&gt;&amp;nbsp;is simply dummy text of the printing and typesetting industry.&lt;/font&gt;" style="text;html=1;strokeColor=none;fillColor=none;align=left;verticalAlign=middle;whiteSpace=wrap;rounded=0;" vertex="1" parent="7A5BujyxhH79Ag0sNUKM-151">
          <mxGeometry width="540" height="30" as="geometry" />
        </mxCell>
        <mxCell id="7A5BujyxhH79Ag0sNUKM-156" value="" style="group" vertex="1" connectable="0" parent="7A5BujyxhH79Ag0sNUKM-116">
          <mxGeometry x="35.00000000000006" y="786" width="560" height="80" as="geometry" />
        </mxCell>
        <mxCell id="7A5BujyxhH79Ag0sNUKM-157" value="" style="group" vertex="1" connectable="0" parent="7A5BujyxhH79Ag0sNUKM-156">
          <mxGeometry width="560" height="80" as="geometry" />
        </mxCell>
        <mxCell id="7A5BujyxhH79Ag0sNUKM-158" value="Option 1" style="rounded=0;whiteSpace=wrap;html=1;" vertex="1" parent="7A5BujyxhH79Ag0sNUKM-157">
          <mxGeometry y="30" width="180" height="50" as="geometry" />
        </mxCell>
        <mxCell id="7A5BujyxhH79Ag0sNUKM-159" value="Option 2" style="rounded=0;whiteSpace=wrap;html=1;fillColor=#d5e8d4;strokeColor=#82b366;" vertex="1" parent="7A5BujyxhH79Ag0sNUKM-157">
          <mxGeometry x="190" y="30" width="180" height="50" as="geometry" />
        </mxCell>
        <mxCell id="7A5BujyxhH79Ag0sNUKM-160" value="Option 3" style="rounded=0;whiteSpace=wrap;html=1;" vertex="1" parent="7A5BujyxhH79Ag0sNUKM-157">
          <mxGeometry x="380" y="30" width="180" height="50" as="geometry" />
        </mxCell>
        <mxCell id="7A5BujyxhH79Ag0sNUKM-161" value="&lt;font style=&quot;font-size: 16px;&quot;&gt;&lt;span style=&quot;margin: 0px; padding: 0px; font-family: &amp;quot;Open Sans&amp;quot;, Arial, sans-serif;&quot;&gt;Lorem Ipsum&lt;/span&gt;&amp;nbsp;is simply dummy text of the printing and typesetting industry.&lt;/font&gt;" style="text;html=1;strokeColor=none;fillColor=none;align=left;verticalAlign=middle;whiteSpace=wrap;rounded=0;" vertex="1" parent="7A5BujyxhH79Ag0sNUKM-157">
          <mxGeometry width="540" height="30" as="geometry" />
        </mxCell>
        <mxCell id="7A5BujyxhH79Ag0sNUKM-162" value="" style="group" vertex="1" connectable="0" parent="7A5BujyxhH79Ag0sNUKM-116">
          <mxGeometry x="35.00000000000006" y="876" width="560" height="80" as="geometry" />
        </mxCell>
        <mxCell id="7A5BujyxhH79Ag0sNUKM-163" value="" style="group" vertex="1" connectable="0" parent="7A5BujyxhH79Ag0sNUKM-162">
          <mxGeometry width="560" height="80" as="geometry" />
        </mxCell>
        <mxCell id="7A5BujyxhH79Ag0sNUKM-164" value="Option 1" style="rounded=0;whiteSpace=wrap;html=1;fillColor=#d5e8d4;strokeColor=#82b366;" vertex="1" parent="7A5BujyxhH79Ag0sNUKM-163">
          <mxGeometry y="30" width="180" height="50" as="geometry" />
        </mxCell>
        <mxCell id="7A5BujyxhH79Ag0sNUKM-165" value="Option 2" style="rounded=0;whiteSpace=wrap;html=1;" vertex="1" parent="7A5BujyxhH79Ag0sNUKM-163">
          <mxGeometry x="190" y="30" width="180" height="50" as="geometry" />
        </mxCell>
        <mxCell id="7A5BujyxhH79Ag0sNUKM-166" value="Option 3" style="rounded=0;whiteSpace=wrap;html=1;" vertex="1" parent="7A5BujyxhH79Ag0sNUKM-163">
          <mxGeometry x="380" y="30" width="180" height="50" as="geometry" />
        </mxCell>
        <mxCell id="7A5BujyxhH79Ag0sNUKM-167" value="&lt;font style=&quot;font-size: 16px;&quot;&gt;&lt;span style=&quot;margin: 0px; padding: 0px; font-family: &amp;quot;Open Sans&amp;quot;, Arial, sans-serif;&quot;&gt;Lorem Ipsum&lt;/span&gt;&amp;nbsp;is simply dummy text of the printing and typesetting industry.&lt;/font&gt;" style="text;html=1;strokeColor=none;fillColor=none;align=left;verticalAlign=middle;whiteSpace=wrap;rounded=0;" vertex="1" parent="7A5BujyxhH79Ag0sNUKM-163">
          <mxGeometry width="540" height="30" as="geometry" />
        </mxCell>
        <mxCell id="7A5BujyxhH79Ag0sNUKM-168" value="" style="group" vertex="1" connectable="0" parent="7A5BujyxhH79Ag0sNUKM-116">
          <mxGeometry x="35.00000000000006" y="966" width="560" height="80" as="geometry" />
        </mxCell>
        <mxCell id="7A5BujyxhH79Ag0sNUKM-169" value="" style="group" vertex="1" connectable="0" parent="7A5BujyxhH79Ag0sNUKM-168">
          <mxGeometry width="560" height="80" as="geometry" />
        </mxCell>
        <mxCell id="7A5BujyxhH79Ag0sNUKM-170" value="Option 1" style="rounded=0;whiteSpace=wrap;html=1;fillColor=#d5e8d4;strokeColor=#82b366;" vertex="1" parent="7A5BujyxhH79Ag0sNUKM-169">
          <mxGeometry y="30" width="180" height="50" as="geometry" />
        </mxCell>
        <mxCell id="7A5BujyxhH79Ag0sNUKM-171" value="Option 2" style="rounded=0;whiteSpace=wrap;html=1;" vertex="1" parent="7A5BujyxhH79Ag0sNUKM-169">
          <mxGeometry x="190" y="30" width="180" height="50" as="geometry" />
        </mxCell>
        <mxCell id="7A5BujyxhH79Ag0sNUKM-172" value="Option 3" style="rounded=0;whiteSpace=wrap;html=1;" vertex="1" parent="7A5BujyxhH79Ag0sNUKM-169">
          <mxGeometry x="380" y="30" width="180" height="50" as="geometry" />
        </mxCell>
        <mxCell id="7A5BujyxhH79Ag0sNUKM-173" value="&lt;font style=&quot;font-size: 16px;&quot;&gt;&lt;span style=&quot;margin: 0px; padding: 0px; font-family: &amp;quot;Open Sans&amp;quot;, Arial, sans-serif;&quot;&gt;Lorem Ipsum&lt;/span&gt;&amp;nbsp;is simply dummy text of the printing and typesetting industry.&lt;/font&gt;" style="text;html=1;strokeColor=none;fillColor=none;align=left;verticalAlign=middle;whiteSpace=wrap;rounded=0;" vertex="1" parent="7A5BujyxhH79Ag0sNUKM-169">
          <mxGeometry width="540" height="30" as="geometry" />
        </mxCell>
        <mxCell id="7A5BujyxhH79Ag0sNUKM-174" value="" style="group" vertex="1" connectable="0" parent="7A5BujyxhH79Ag0sNUKM-116">
          <mxGeometry x="35.00000000000006" y="1056" width="560" height="80" as="geometry" />
        </mxCell>
        <mxCell id="7A5BujyxhH79Ag0sNUKM-175" value="Option 1" style="rounded=0;whiteSpace=wrap;html=1;" vertex="1" parent="7A5BujyxhH79Ag0sNUKM-174">
          <mxGeometry y="30" width="180" height="50" as="geometry" />
        </mxCell>
        <mxCell id="7A5BujyxhH79Ag0sNUKM-176" value="Option 2" style="rounded=0;whiteSpace=wrap;html=1;" vertex="1" parent="7A5BujyxhH79Ag0sNUKM-174">
          <mxGeometry x="190" y="30" width="180" height="50" as="geometry" />
        </mxCell>
        <mxCell id="7A5BujyxhH79Ag0sNUKM-177" value="Option 3" style="rounded=0;whiteSpace=wrap;html=1;fillColor=#f8cecc;strokeColor=#b85450;" vertex="1" parent="7A5BujyxhH79Ag0sNUKM-174">
          <mxGeometry x="380" y="30" width="180" height="50" as="geometry" />
        </mxCell>
        <mxCell id="7A5BujyxhH79Ag0sNUKM-178" value="&lt;font style=&quot;font-size: 16px;&quot;&gt;&lt;span style=&quot;margin: 0px; padding: 0px; font-family: &amp;quot;Open Sans&amp;quot;, Arial, sans-serif;&quot;&gt;Lorem Ipsum&lt;/span&gt;&amp;nbsp;is simply dummy text of the printing and typesetting industry.&lt;/font&gt;" style="text;html=1;strokeColor=none;fillColor=none;align=left;verticalAlign=middle;whiteSpace=wrap;rounded=0;" vertex="1" parent="7A5BujyxhH79Ag0sNUKM-174">
          <mxGeometry width="540" height="30" as="geometry" />
        </mxCell>
        <mxCell id="7A5BujyxhH79Ag0sNUKM-179" value="Retry" style="rounded=0;whiteSpace=wrap;html=1;fillColor=#f5f5f5;fontColor=#333333;fontSize=16;strokeColor=#666666;" vertex="1" parent="7A5BujyxhH79Ag0sNUKM-116">
          <mxGeometry x="135.00000000000006" y="1166" width="180" height="50" as="geometry" />
        </mxCell>
        <mxCell id="7A5BujyxhH79Ag0sNUKM-187" value="Next" style="rounded=0;whiteSpace=wrap;html=1;fillColor=#000000;fontColor=#FFFFFF;fontSize=16;" vertex="1" parent="7A5BujyxhH79Ag0sNUKM-116">
          <mxGeometry x="335.00000000000006" y="1166" width="180" height="50" as="geometry" />
        </mxCell>
        <mxCell id="7A5BujyxhH79Ag0sNUKM-180" value="History" style="rounded=0;whiteSpace=wrap;html=1;fontSize=16;" vertex="1" parent="1">
          <mxGeometry x="-100" y="200" width="280" height="140" as="geometry" />
        </mxCell>
        <mxCell id="7A5BujyxhH79Ag0sNUKM-181" value="Language" style="rounded=0;whiteSpace=wrap;html=1;fontSize=16;" vertex="1" parent="1">
          <mxGeometry x="-400" y="360" width="280" height="140" as="geometry" />
        </mxCell>
        <mxCell id="7A5BujyxhH79Ag0sNUKM-182" value="Coding" style="rounded=0;whiteSpace=wrap;html=1;fontSize=16;" vertex="1" parent="1">
          <mxGeometry x="-100" y="360" width="280" height="140" as="geometry" />
        </mxCell>
        <mxCell id="7A5BujyxhH79Ag0sNUKM-184" value="" style="ellipse;whiteSpace=wrap;html=1;aspect=fixed;fillColor=#d5e8d4;strokeColor=#82b366;" vertex="1" parent="1">
          <mxGeometry x="1135" y="200" width="190" height="190" as="geometry" />
        </mxCell>
        <mxCell id="7A5BujyxhH79Ag0sNUKM-188" value="Go Home" style="rounded=0;whiteSpace=wrap;html=1;fillColor=#000000;fontColor=#FFFFFF;fontSize=16;" vertex="1" parent="1">
          <mxGeometry x="1140" y="660" width="180" height="50" as="geometry" />
        </mxCell>
        <mxCell id="7A5BujyxhH79Ag0sNUKM-189" value="" style="group" vertex="1" connectable="0" parent="1">
          <mxGeometry x="1160" y="410" width="140" height="130" as="geometry" />
        </mxCell>
        <mxCell id="7A5BujyxhH79Ag0sNUKM-185" value="Score" style="text;html=1;strokeColor=none;fillColor=none;align=center;verticalAlign=middle;whiteSpace=wrap;rounded=0;fontSize=35;fontStyle=1" vertex="1" parent="7A5BujyxhH79Ag0sNUKM-189">
          <mxGeometry width="140" height="70" as="geometry" />
        </mxCell>
        <mxCell id="7A5BujyxhH79Ag0sNUKM-186" value="7 / 10" style="text;html=1;strokeColor=none;fillColor=none;align=center;verticalAlign=middle;whiteSpace=wrap;rounded=0;fontSize=35;fontStyle=1" vertex="1" parent="7A5BujyxhH79Ag0sNUKM-189">
          <mxGeometry y="60" width="140" height="70" as="geometry" />
        </mxCell>
        <mxCell id="7A5BujyxhH79Ag0sNUKM-190" value="Category" style="shape=table;startSize=30;container=1;collapsible=1;childLayout=tableLayout;fixedRows=1;rowLines=0;fontStyle=1;align=center;resizeLast=1;html=1;fontSize=14;" vertex="1" parent="1">
          <mxGeometry x="-1370" y="4" width="180" height="150" as="geometry" />
        </mxCell>
        <mxCell id="7A5BujyxhH79Ag0sNUKM-191" value="" style="shape=tableRow;horizontal=0;startSize=0;swimlaneHead=0;swimlaneBody=0;fillColor=none;collapsible=0;dropTarget=0;points=[[0,0.5],[1,0.5]];portConstraint=eastwest;top=0;left=0;right=0;bottom=1;fontSize=14;" vertex="1" parent="7A5BujyxhH79Ag0sNUKM-190">
          <mxGeometry y="30" width="180" height="30" as="geometry" />
        </mxCell>
        <mxCell id="7A5BujyxhH79Ag0sNUKM-192" value="PK" style="shape=partialRectangle;connectable=0;fillColor=none;top=0;left=0;bottom=0;right=0;fontStyle=1;overflow=hidden;whiteSpace=wrap;html=1;fontSize=14;" vertex="1" parent="7A5BujyxhH79Ag0sNUKM-191">
          <mxGeometry width="30" height="30" as="geometry">
            <mxRectangle width="30" height="30" as="alternateBounds" />
          </mxGeometry>
        </mxCell>
        <mxCell id="7A5BujyxhH79Ag0sNUKM-193" value="id" style="shape=partialRectangle;connectable=0;fillColor=none;top=0;left=0;bottom=0;right=0;align=left;spacingLeft=6;fontStyle=5;overflow=hidden;whiteSpace=wrap;html=1;fontSize=14;" vertex="1" parent="7A5BujyxhH79Ag0sNUKM-191">
          <mxGeometry x="30" width="150" height="30" as="geometry">
            <mxRectangle width="150" height="30" as="alternateBounds" />
          </mxGeometry>
        </mxCell>
        <mxCell id="7A5BujyxhH79Ag0sNUKM-194" value="" style="shape=tableRow;horizontal=0;startSize=0;swimlaneHead=0;swimlaneBody=0;fillColor=none;collapsible=0;dropTarget=0;points=[[0,0.5],[1,0.5]];portConstraint=eastwest;top=0;left=0;right=0;bottom=0;fontSize=14;" vertex="1" parent="7A5BujyxhH79Ag0sNUKM-190">
          <mxGeometry y="60" width="180" height="30" as="geometry" />
        </mxCell>
        <mxCell id="7A5BujyxhH79Ag0sNUKM-195" value="" style="shape=partialRectangle;connectable=0;fillColor=none;top=0;left=0;bottom=0;right=0;editable=1;overflow=hidden;whiteSpace=wrap;html=1;fontSize=14;" vertex="1" parent="7A5BujyxhH79Ag0sNUKM-194">
          <mxGeometry width="30" height="30" as="geometry">
            <mxRectangle width="30" height="30" as="alternateBounds" />
          </mxGeometry>
        </mxCell>
        <mxCell id="7A5BujyxhH79Ag0sNUKM-196" value="name" style="shape=partialRectangle;connectable=0;fillColor=none;top=0;left=0;bottom=0;right=0;align=left;spacingLeft=6;overflow=hidden;whiteSpace=wrap;html=1;fontSize=14;" vertex="1" parent="7A5BujyxhH79Ag0sNUKM-194">
          <mxGeometry x="30" width="150" height="30" as="geometry">
            <mxRectangle width="150" height="30" as="alternateBounds" />
          </mxGeometry>
        </mxCell>
        <mxCell id="7A5BujyxhH79Ag0sNUKM-197" value="" style="shape=tableRow;horizontal=0;startSize=0;swimlaneHead=0;swimlaneBody=0;fillColor=none;collapsible=0;dropTarget=0;points=[[0,0.5],[1,0.5]];portConstraint=eastwest;top=0;left=0;right=0;bottom=0;fontSize=14;" vertex="1" parent="7A5BujyxhH79Ag0sNUKM-190">
          <mxGeometry y="90" width="180" height="30" as="geometry" />
        </mxCell>
        <mxCell id="7A5BujyxhH79Ag0sNUKM-198" value="" style="shape=partialRectangle;connectable=0;fillColor=none;top=0;left=0;bottom=0;right=0;editable=1;overflow=hidden;whiteSpace=wrap;html=1;fontSize=14;" vertex="1" parent="7A5BujyxhH79Ag0sNUKM-197">
          <mxGeometry width="30" height="30" as="geometry">
            <mxRectangle width="30" height="30" as="alternateBounds" />
          </mxGeometry>
        </mxCell>
        <mxCell id="7A5BujyxhH79Ag0sNUKM-199" value="description" style="shape=partialRectangle;connectable=0;fillColor=none;top=0;left=0;bottom=0;right=0;align=left;spacingLeft=6;overflow=hidden;whiteSpace=wrap;html=1;fontSize=14;" vertex="1" parent="7A5BujyxhH79Ag0sNUKM-197">
          <mxGeometry x="30" width="150" height="30" as="geometry">
            <mxRectangle width="150" height="30" as="alternateBounds" />
          </mxGeometry>
        </mxCell>
        <mxCell id="7A5BujyxhH79Ag0sNUKM-200" value="" style="shape=tableRow;horizontal=0;startSize=0;swimlaneHead=0;swimlaneBody=0;fillColor=none;collapsible=0;dropTarget=0;points=[[0,0.5],[1,0.5]];portConstraint=eastwest;top=0;left=0;right=0;bottom=0;fontSize=14;" vertex="1" parent="7A5BujyxhH79Ag0sNUKM-190">
          <mxGeometry y="120" width="180" height="30" as="geometry" />
        </mxCell>
        <mxCell id="7A5BujyxhH79Ag0sNUKM-201" value="" style="shape=partialRectangle;connectable=0;fillColor=none;top=0;left=0;bottom=0;right=0;editable=1;overflow=hidden;whiteSpace=wrap;html=1;fontSize=14;" vertex="1" parent="7A5BujyxhH79Ag0sNUKM-200">
          <mxGeometry width="30" height="30" as="geometry">
            <mxRectangle width="30" height="30" as="alternateBounds" />
          </mxGeometry>
        </mxCell>
        <mxCell id="7A5BujyxhH79Ag0sNUKM-202" value="" style="shape=partialRectangle;connectable=0;fillColor=none;top=0;left=0;bottom=0;right=0;align=left;spacingLeft=6;overflow=hidden;whiteSpace=wrap;html=1;fontSize=14;" vertex="1" parent="7A5BujyxhH79Ag0sNUKM-200">
          <mxGeometry x="30" width="150" height="30" as="geometry">
            <mxRectangle width="150" height="30" as="alternateBounds" />
          </mxGeometry>
        </mxCell>
        <mxCell id="7A5BujyxhH79Ag0sNUKM-203" value="Question" style="shape=table;startSize=30;container=1;collapsible=1;childLayout=tableLayout;fixedRows=1;rowLines=0;fontStyle=1;align=center;resizeLast=1;html=1;fontSize=14;" vertex="1" parent="1">
          <mxGeometry x="-1080" y="4" width="180" height="150" as="geometry" />
        </mxCell>
        <mxCell id="7A5BujyxhH79Ag0sNUKM-204" value="" style="shape=tableRow;horizontal=0;startSize=0;swimlaneHead=0;swimlaneBody=0;fillColor=none;collapsible=0;dropTarget=0;points=[[0,0.5],[1,0.5]];portConstraint=eastwest;top=0;left=0;right=0;bottom=1;fontSize=14;" vertex="1" parent="7A5BujyxhH79Ag0sNUKM-203">
          <mxGeometry y="30" width="180" height="30" as="geometry" />
        </mxCell>
        <mxCell id="7A5BujyxhH79Ag0sNUKM-205" value="PK" style="shape=partialRectangle;connectable=0;fillColor=none;top=0;left=0;bottom=0;right=0;fontStyle=1;overflow=hidden;whiteSpace=wrap;html=1;fontSize=14;" vertex="1" parent="7A5BujyxhH79Ag0sNUKM-204">
          <mxGeometry width="30" height="30" as="geometry">
            <mxRectangle width="30" height="30" as="alternateBounds" />
          </mxGeometry>
        </mxCell>
        <mxCell id="7A5BujyxhH79Ag0sNUKM-206" value="id" style="shape=partialRectangle;connectable=0;fillColor=none;top=0;left=0;bottom=0;right=0;align=left;spacingLeft=6;fontStyle=5;overflow=hidden;whiteSpace=wrap;html=1;fontSize=14;" vertex="1" parent="7A5BujyxhH79Ag0sNUKM-204">
          <mxGeometry x="30" width="150" height="30" as="geometry">
            <mxRectangle width="150" height="30" as="alternateBounds" />
          </mxGeometry>
        </mxCell>
        <mxCell id="7A5BujyxhH79Ag0sNUKM-207" value="" style="shape=tableRow;horizontal=0;startSize=0;swimlaneHead=0;swimlaneBody=0;fillColor=none;collapsible=0;dropTarget=0;points=[[0,0.5],[1,0.5]];portConstraint=eastwest;top=0;left=0;right=0;bottom=0;fontSize=14;" vertex="1" parent="7A5BujyxhH79Ag0sNUKM-203">
          <mxGeometry y="60" width="180" height="30" as="geometry" />
        </mxCell>
        <mxCell id="7A5BujyxhH79Ag0sNUKM-208" value="" style="shape=partialRectangle;connectable=0;fillColor=none;top=0;left=0;bottom=0;right=0;editable=1;overflow=hidden;whiteSpace=wrap;html=1;fontSize=14;" vertex="1" parent="7A5BujyxhH79Ag0sNUKM-207">
          <mxGeometry width="30" height="30" as="geometry">
            <mxRectangle width="30" height="30" as="alternateBounds" />
          </mxGeometry>
        </mxCell>
        <mxCell id="7A5BujyxhH79Ag0sNUKM-209" value="question" style="shape=partialRectangle;connectable=0;fillColor=none;top=0;left=0;bottom=0;right=0;align=left;spacingLeft=6;overflow=hidden;whiteSpace=wrap;html=1;fontSize=14;" vertex="1" parent="7A5BujyxhH79Ag0sNUKM-207">
          <mxGeometry x="30" width="150" height="30" as="geometry">
            <mxRectangle width="150" height="30" as="alternateBounds" />
          </mxGeometry>
        </mxCell>
        <mxCell id="7A5BujyxhH79Ag0sNUKM-210" value="" style="shape=tableRow;horizontal=0;startSize=0;swimlaneHead=0;swimlaneBody=0;fillColor=none;collapsible=0;dropTarget=0;points=[[0,0.5],[1,0.5]];portConstraint=eastwest;top=0;left=0;right=0;bottom=0;fontSize=14;" vertex="1" parent="7A5BujyxhH79Ag0sNUKM-203">
          <mxGeometry y="90" width="180" height="30" as="geometry" />
        </mxCell>
        <mxCell id="7A5BujyxhH79Ag0sNUKM-211" value="FK" style="shape=partialRectangle;connectable=0;fillColor=none;top=0;left=0;bottom=0;right=0;editable=1;overflow=hidden;whiteSpace=wrap;html=1;fontSize=14;" vertex="1" parent="7A5BujyxhH79Ag0sNUKM-210">
          <mxGeometry width="30" height="30" as="geometry">
            <mxRectangle width="30" height="30" as="alternateBounds" />
          </mxGeometry>
        </mxCell>
        <mxCell id="7A5BujyxhH79Ag0sNUKM-212" value="category_id" style="shape=partialRectangle;connectable=0;fillColor=none;top=0;left=0;bottom=0;right=0;align=left;spacingLeft=6;overflow=hidden;whiteSpace=wrap;html=1;fontSize=14;" vertex="1" parent="7A5BujyxhH79Ag0sNUKM-210">
          <mxGeometry x="30" width="150" height="30" as="geometry">
            <mxRectangle width="150" height="30" as="alternateBounds" />
          </mxGeometry>
        </mxCell>
        <mxCell id="7A5BujyxhH79Ag0sNUKM-213" value="" style="shape=tableRow;horizontal=0;startSize=0;swimlaneHead=0;swimlaneBody=0;fillColor=none;collapsible=0;dropTarget=0;points=[[0,0.5],[1,0.5]];portConstraint=eastwest;top=0;left=0;right=0;bottom=0;fontSize=14;" vertex="1" parent="7A5BujyxhH79Ag0sNUKM-203">
          <mxGeometry y="120" width="180" height="30" as="geometry" />
        </mxCell>
        <mxCell id="7A5BujyxhH79Ag0sNUKM-214" value="" style="shape=partialRectangle;connectable=0;fillColor=none;top=0;left=0;bottom=0;right=0;editable=1;overflow=hidden;whiteSpace=wrap;html=1;fontSize=14;" vertex="1" parent="7A5BujyxhH79Ag0sNUKM-213">
          <mxGeometry width="30" height="30" as="geometry">
            <mxRectangle width="30" height="30" as="alternateBounds" />
          </mxGeometry>
        </mxCell>
        <mxCell id="7A5BujyxhH79Ag0sNUKM-215" value="" style="shape=partialRectangle;connectable=0;fillColor=none;top=0;left=0;bottom=0;right=0;align=left;spacingLeft=6;overflow=hidden;whiteSpace=wrap;html=1;fontSize=14;" vertex="1" parent="7A5BujyxhH79Ag0sNUKM-213">
          <mxGeometry x="30" width="150" height="30" as="geometry">
            <mxRectangle width="150" height="30" as="alternateBounds" />
          </mxGeometry>
        </mxCell>
        <mxCell id="7A5BujyxhH79Ag0sNUKM-216" value="Option" style="shape=table;startSize=30;container=1;collapsible=1;childLayout=tableLayout;fixedRows=1;rowLines=0;fontStyle=1;align=center;resizeLast=1;html=1;fontSize=14;" vertex="1" parent="1">
          <mxGeometry x="-780" y="4" width="180" height="150" as="geometry" />
        </mxCell>
        <mxCell id="7A5BujyxhH79Ag0sNUKM-217" value="" style="shape=tableRow;horizontal=0;startSize=0;swimlaneHead=0;swimlaneBody=0;fillColor=none;collapsible=0;dropTarget=0;points=[[0,0.5],[1,0.5]];portConstraint=eastwest;top=0;left=0;right=0;bottom=1;fontSize=14;" vertex="1" parent="7A5BujyxhH79Ag0sNUKM-216">
          <mxGeometry y="30" width="180" height="30" as="geometry" />
        </mxCell>
        <mxCell id="7A5BujyxhH79Ag0sNUKM-218" value="PK" style="shape=partialRectangle;connectable=0;fillColor=none;top=0;left=0;bottom=0;right=0;fontStyle=1;overflow=hidden;whiteSpace=wrap;html=1;fontSize=14;" vertex="1" parent="7A5BujyxhH79Ag0sNUKM-217">
          <mxGeometry width="30" height="30" as="geometry">
            <mxRectangle width="30" height="30" as="alternateBounds" />
          </mxGeometry>
        </mxCell>
        <mxCell id="7A5BujyxhH79Ag0sNUKM-219" value="id" style="shape=partialRectangle;connectable=0;fillColor=none;top=0;left=0;bottom=0;right=0;align=left;spacingLeft=6;fontStyle=5;overflow=hidden;whiteSpace=wrap;html=1;fontSize=14;" vertex="1" parent="7A5BujyxhH79Ag0sNUKM-217">
          <mxGeometry x="30" width="150" height="30" as="geometry">
            <mxRectangle width="150" height="30" as="alternateBounds" />
          </mxGeometry>
        </mxCell>
        <mxCell id="7A5BujyxhH79Ag0sNUKM-220" value="" style="shape=tableRow;horizontal=0;startSize=0;swimlaneHead=0;swimlaneBody=0;fillColor=none;collapsible=0;dropTarget=0;points=[[0,0.5],[1,0.5]];portConstraint=eastwest;top=0;left=0;right=0;bottom=0;fontSize=14;" vertex="1" parent="7A5BujyxhH79Ag0sNUKM-216">
          <mxGeometry y="60" width="180" height="30" as="geometry" />
        </mxCell>
        <mxCell id="7A5BujyxhH79Ag0sNUKM-221" value="" style="shape=partialRectangle;connectable=0;fillColor=none;top=0;left=0;bottom=0;right=0;editable=1;overflow=hidden;whiteSpace=wrap;html=1;fontSize=14;" vertex="1" parent="7A5BujyxhH79Ag0sNUKM-220">
          <mxGeometry width="30" height="30" as="geometry">
            <mxRectangle width="30" height="30" as="alternateBounds" />
          </mxGeometry>
        </mxCell>
        <mxCell id="7A5BujyxhH79Ag0sNUKM-222" value="text" style="shape=partialRectangle;connectable=0;fillColor=none;top=0;left=0;bottom=0;right=0;align=left;spacingLeft=6;overflow=hidden;whiteSpace=wrap;html=1;fontSize=14;" vertex="1" parent="7A5BujyxhH79Ag0sNUKM-220">
          <mxGeometry x="30" width="150" height="30" as="geometry">
            <mxRectangle width="150" height="30" as="alternateBounds" />
          </mxGeometry>
        </mxCell>
        <mxCell id="7A5BujyxhH79Ag0sNUKM-223" value="" style="shape=tableRow;horizontal=0;startSize=0;swimlaneHead=0;swimlaneBody=0;fillColor=none;collapsible=0;dropTarget=0;points=[[0,0.5],[1,0.5]];portConstraint=eastwest;top=0;left=0;right=0;bottom=0;fontSize=14;" vertex="1" parent="7A5BujyxhH79Ag0sNUKM-216">
          <mxGeometry y="90" width="180" height="30" as="geometry" />
        </mxCell>
        <mxCell id="7A5BujyxhH79Ag0sNUKM-224" value="FK" style="shape=partialRectangle;connectable=0;fillColor=none;top=0;left=0;bottom=0;right=0;editable=1;overflow=hidden;whiteSpace=wrap;html=1;fontSize=14;" vertex="1" parent="7A5BujyxhH79Ag0sNUKM-223">
          <mxGeometry width="30" height="30" as="geometry">
            <mxRectangle width="30" height="30" as="alternateBounds" />
          </mxGeometry>
        </mxCell>
        <mxCell id="7A5BujyxhH79Ag0sNUKM-225" value="question_id" style="shape=partialRectangle;connectable=0;fillColor=none;top=0;left=0;bottom=0;right=0;align=left;spacingLeft=6;overflow=hidden;whiteSpace=wrap;html=1;fontSize=14;" vertex="1" parent="7A5BujyxhH79Ag0sNUKM-223">
          <mxGeometry x="30" width="150" height="30" as="geometry">
            <mxRectangle width="150" height="30" as="alternateBounds" />
          </mxGeometry>
        </mxCell>
        <mxCell id="7A5BujyxhH79Ag0sNUKM-226" value="" style="shape=tableRow;horizontal=0;startSize=0;swimlaneHead=0;swimlaneBody=0;fillColor=none;collapsible=0;dropTarget=0;points=[[0,0.5],[1,0.5]];portConstraint=eastwest;top=0;left=0;right=0;bottom=0;fontSize=14;" vertex="1" parent="7A5BujyxhH79Ag0sNUKM-216">
          <mxGeometry y="120" width="180" height="30" as="geometry" />
        </mxCell>
        <mxCell id="7A5BujyxhH79Ag0sNUKM-227" value="" style="shape=partialRectangle;connectable=0;fillColor=none;top=0;left=0;bottom=0;right=0;editable=1;overflow=hidden;whiteSpace=wrap;html=1;fontSize=14;" vertex="1" parent="7A5BujyxhH79Ag0sNUKM-226">
          <mxGeometry width="30" height="30" as="geometry">
            <mxRectangle width="30" height="30" as="alternateBounds" />
          </mxGeometry>
        </mxCell>
        <mxCell id="7A5BujyxhH79Ag0sNUKM-228" value="" style="shape=partialRectangle;connectable=0;fillColor=none;top=0;left=0;bottom=0;right=0;align=left;spacingLeft=6;overflow=hidden;whiteSpace=wrap;html=1;fontSize=14;" vertex="1" parent="7A5BujyxhH79Ag0sNUKM-226">
          <mxGeometry x="30" width="150" height="30" as="geometry">
            <mxRectangle width="150" height="30" as="alternateBounds" />
          </mxGeometry>
        </mxCell>
        <mxCell id="7A5BujyxhH79Ag0sNUKM-229" value="Question_Answer" style="shape=table;startSize=30;container=1;collapsible=1;childLayout=tableLayout;fixedRows=1;rowLines=0;fontStyle=1;align=center;resizeLast=1;html=1;fontSize=14;" vertex="1" parent="1">
          <mxGeometry x="-930" y="264" width="180" height="150" as="geometry" />
        </mxCell>
        <mxCell id="7A5BujyxhH79Ag0sNUKM-230" value="" style="shape=tableRow;horizontal=0;startSize=0;swimlaneHead=0;swimlaneBody=0;fillColor=none;collapsible=0;dropTarget=0;points=[[0,0.5],[1,0.5]];portConstraint=eastwest;top=0;left=0;right=0;bottom=1;fontSize=14;" vertex="1" parent="7A5BujyxhH79Ag0sNUKM-229">
          <mxGeometry y="30" width="180" height="30" as="geometry" />
        </mxCell>
        <mxCell id="7A5BujyxhH79Ag0sNUKM-231" value="PK" style="shape=partialRectangle;connectable=0;fillColor=none;top=0;left=0;bottom=0;right=0;fontStyle=1;overflow=hidden;whiteSpace=wrap;html=1;fontSize=14;" vertex="1" parent="7A5BujyxhH79Ag0sNUKM-230">
          <mxGeometry width="30" height="30" as="geometry">
            <mxRectangle width="30" height="30" as="alternateBounds" />
          </mxGeometry>
        </mxCell>
        <mxCell id="7A5BujyxhH79Ag0sNUKM-232" value="id" style="shape=partialRectangle;connectable=0;fillColor=none;top=0;left=0;bottom=0;right=0;align=left;spacingLeft=6;fontStyle=5;overflow=hidden;whiteSpace=wrap;html=1;fontSize=14;" vertex="1" parent="7A5BujyxhH79Ag0sNUKM-230">
          <mxGeometry x="30" width="150" height="30" as="geometry">
            <mxRectangle width="150" height="30" as="alternateBounds" />
          </mxGeometry>
        </mxCell>
        <mxCell id="7A5BujyxhH79Ag0sNUKM-233" value="" style="shape=tableRow;horizontal=0;startSize=0;swimlaneHead=0;swimlaneBody=0;fillColor=none;collapsible=0;dropTarget=0;points=[[0,0.5],[1,0.5]];portConstraint=eastwest;top=0;left=0;right=0;bottom=0;fontSize=14;" vertex="1" parent="7A5BujyxhH79Ag0sNUKM-229">
          <mxGeometry y="60" width="180" height="30" as="geometry" />
        </mxCell>
        <mxCell id="7A5BujyxhH79Ag0sNUKM-234" value="FK" style="shape=partialRectangle;connectable=0;fillColor=none;top=0;left=0;bottom=0;right=0;editable=1;overflow=hidden;whiteSpace=wrap;html=1;fontSize=14;" vertex="1" parent="7A5BujyxhH79Ag0sNUKM-233">
          <mxGeometry width="30" height="30" as="geometry">
            <mxRectangle width="30" height="30" as="alternateBounds" />
          </mxGeometry>
        </mxCell>
        <mxCell id="7A5BujyxhH79Ag0sNUKM-235" value="question_id" style="shape=partialRectangle;connectable=0;fillColor=none;top=0;left=0;bottom=0;right=0;align=left;spacingLeft=6;overflow=hidden;whiteSpace=wrap;html=1;fontSize=14;" vertex="1" parent="7A5BujyxhH79Ag0sNUKM-233">
          <mxGeometry x="30" width="150" height="30" as="geometry">
            <mxRectangle width="150" height="30" as="alternateBounds" />
          </mxGeometry>
        </mxCell>
        <mxCell id="7A5BujyxhH79Ag0sNUKM-236" value="" style="shape=tableRow;horizontal=0;startSize=0;swimlaneHead=0;swimlaneBody=0;fillColor=none;collapsible=0;dropTarget=0;points=[[0,0.5],[1,0.5]];portConstraint=eastwest;top=0;left=0;right=0;bottom=0;fontSize=14;" vertex="1" parent="7A5BujyxhH79Ag0sNUKM-229">
          <mxGeometry y="90" width="180" height="30" as="geometry" />
        </mxCell>
        <mxCell id="7A5BujyxhH79Ag0sNUKM-237" value="FK" style="shape=partialRectangle;connectable=0;fillColor=none;top=0;left=0;bottom=0;right=0;editable=1;overflow=hidden;whiteSpace=wrap;html=1;fontSize=14;" vertex="1" parent="7A5BujyxhH79Ag0sNUKM-236">
          <mxGeometry width="30" height="30" as="geometry">
            <mxRectangle width="30" height="30" as="alternateBounds" />
          </mxGeometry>
        </mxCell>
        <mxCell id="7A5BujyxhH79Ag0sNUKM-238" value="option_id" style="shape=partialRectangle;connectable=0;fillColor=none;top=0;left=0;bottom=0;right=0;align=left;spacingLeft=6;overflow=hidden;whiteSpace=wrap;html=1;fontSize=14;" vertex="1" parent="7A5BujyxhH79Ag0sNUKM-236">
          <mxGeometry x="30" width="150" height="30" as="geometry">
            <mxRectangle width="150" height="30" as="alternateBounds" />
          </mxGeometry>
        </mxCell>
        <mxCell id="7A5BujyxhH79Ag0sNUKM-239" value="" style="shape=tableRow;horizontal=0;startSize=0;swimlaneHead=0;swimlaneBody=0;fillColor=none;collapsible=0;dropTarget=0;points=[[0,0.5],[1,0.5]];portConstraint=eastwest;top=0;left=0;right=0;bottom=0;fontSize=14;" vertex="1" parent="7A5BujyxhH79Ag0sNUKM-229">
          <mxGeometry y="120" width="180" height="30" as="geometry" />
        </mxCell>
        <mxCell id="7A5BujyxhH79Ag0sNUKM-240" value="" style="shape=partialRectangle;connectable=0;fillColor=none;top=0;left=0;bottom=0;right=0;editable=1;overflow=hidden;whiteSpace=wrap;html=1;fontSize=14;" vertex="1" parent="7A5BujyxhH79Ag0sNUKM-239">
          <mxGeometry width="30" height="30" as="geometry">
            <mxRectangle width="30" height="30" as="alternateBounds" />
          </mxGeometry>
        </mxCell>
        <mxCell id="7A5BujyxhH79Ag0sNUKM-241" value="" style="shape=partialRectangle;connectable=0;fillColor=none;top=0;left=0;bottom=0;right=0;align=left;spacingLeft=6;overflow=hidden;whiteSpace=wrap;html=1;fontSize=14;" vertex="1" parent="7A5BujyxhH79Ag0sNUKM-239">
          <mxGeometry x="30" width="150" height="30" as="geometry">
            <mxRectangle width="150" height="30" as="alternateBounds" />
          </mxGeometry>
        </mxCell>
        <mxCell id="7A5BujyxhH79Ag0sNUKM-242" style="edgeStyle=orthogonalEdgeStyle;rounded=0;orthogonalLoop=1;jettySize=auto;html=1;entryX=0;entryY=0.5;entryDx=0;entryDy=0;exitX=1;exitY=0.5;exitDx=0;exitDy=0;fontSize=14;startArrow=none;startFill=0;endArrow=none;endFill=0;" edge="1" parent="1" source="7A5BujyxhH79Ag0sNUKM-191" target="7A5BujyxhH79Ag0sNUKM-210">
          <mxGeometry relative="1" as="geometry" />
        </mxCell>
        <mxCell id="7A5BujyxhH79Ag0sNUKM-243" style="edgeStyle=orthogonalEdgeStyle;rounded=0;orthogonalLoop=1;jettySize=auto;html=1;entryX=1;entryY=0.5;entryDx=0;entryDy=0;fontSize=14;startArrow=none;startFill=0;endArrow=none;endFill=0;" edge="1" parent="1" source="7A5BujyxhH79Ag0sNUKM-223" target="7A5BujyxhH79Ag0sNUKM-204">
          <mxGeometry relative="1" as="geometry" />
        </mxCell>
        <mxCell id="7A5BujyxhH79Ag0sNUKM-244" style="edgeStyle=orthogonalEdgeStyle;rounded=0;orthogonalLoop=1;jettySize=auto;html=1;entryX=1;entryY=0.5;entryDx=0;entryDy=0;fontSize=14;startArrow=none;startFill=0;endArrow=none;endFill=0;" edge="1" parent="1" source="7A5BujyxhH79Ag0sNUKM-233" target="7A5BujyxhH79Ag0sNUKM-204">
          <mxGeometry relative="1" as="geometry" />
        </mxCell>
        <mxCell id="7A5BujyxhH79Ag0sNUKM-245" style="edgeStyle=orthogonalEdgeStyle;rounded=0;orthogonalLoop=1;jettySize=auto;html=1;entryX=1;entryY=0.5;entryDx=0;entryDy=0;fontSize=14;startArrow=none;startFill=0;endArrow=none;endFill=0;" edge="1" parent="1" source="7A5BujyxhH79Ag0sNUKM-236" target="7A5BujyxhH79Ag0sNUKM-217">
          <mxGeometry relative="1" as="geometry" />
        </mxCell>
      </root>
    </mxGraphModel>
  </diagram>
</mxfile>
